HIERARCHY
ROOT Hips
{
	OFFSET 0.000000 0.000000 0.000000
	CHANNELS 6 Xposition Yposition Zposition Zrotation Yrotation Xrotation 
	JOINT LHipJoint
	{
		OFFSET 0.000000 0.000000 0.000000
		CHANNELS 3 Zrotation Yrotation Xrotation
		JOINT LeftUpLeg
		{
			OFFSET 1.363060 -1.794630 0.839290
			CHANNELS 3 Zrotation Yrotation Xrotation
			JOINT LeftLeg
			{
				OFFSET 2.448110 -6.726130 0.000000
				CHANNELS 3 Zrotation Yrotation Xrotation
				JOINT LeftFoot
				{
					OFFSET 2.562200 -7.039590 0.000000
					CHANNELS 3 Zrotation Yrotation Xrotation
					JOINT LeftToeBase
					{
						OFFSET 0.157640 -0.433110 2.322550
						CHANNELS 3 Zrotation Yrotation Xrotation
						End Site
						{
							OFFSET 0.000000 0.000000 0.000000
						}
					}
				}
			}
		}
	}
	JOINT RHipJoint
	{
		OFFSET 0.000000 0.000000 0.000000
		CHANNELS 3 Zrotation Yrotation Xrotation
		JOINT RightUpLeg
		{
			OFFSET -1.305520 -1.794630 0.839290
			CHANNELS 3 Zrotation Yrotation Xrotation
			JOINT RightLeg
			{
				OFFSET -2.542530 -6.985550 0.000000
				CHANNELS 3 Zrotation Yrotation Xrotation
				JOINT RightFoot
				{
					OFFSET -2.568260 -7.056230 0.000000
					CHANNELS 3 Zrotation Yrotation Xrotation
					JOINT RightToeBase
					{
						OFFSET -0.164730 -0.452590 2.363150
						CHANNELS 3 Zrotation Yrotation Xrotation
						End Site
						{
							OFFSET 0.000000 0.000000 0.000000
						}
					}
				}
			}
		}
	}
	JOINT LowerBack
	{
		OFFSET 0.000000 0.000000 0.000000
		CHANNELS 3 Zrotation Yrotation Xrotation
		JOINT Spine
		{
			OFFSET 0.028270 2.035590 -0.193380
			CHANNELS 3 Zrotation Yrotation Xrotation
			JOINT Spine1
			{
				OFFSET 0.056720 2.048850 -0.042750
				CHANNELS 3 Zrotation Yrotation Xrotation
				JOINT Neck
				{
					OFFSET 0.000000 0.000000 0.000000
					CHANNELS 3 Zrotation Yrotation Xrotation
					JOINT Neck1
					{
						OFFSET -0.054170 1.746240 0.172020
						CHANNELS 3 Zrotation Yrotation Xrotation
						JOINT Head
						{
							OFFSET 0.104070 1.761360 -0.123970
							CHANNELS 3 Zrotation Yrotation Xrotation
							End Site
							{
								OFFSET 0.000000 0.000000 0.000000
							}
						}
					}
				}
				JOINT LeftShoulder
				{
					OFFSET 0.000000 0.000000 0.000000
					CHANNELS 3 Zrotation Yrotation Xrotation
					JOINT LeftArm
					{
						OFFSET 3.362410 1.200890 -0.311210
						CHANNELS 3 Zrotation Yrotation Xrotation
						JOINT LeftForeArm
						{
							OFFSET 4.983000 -0.000000 -0.000000
							CHANNELS 3 Zrotation Yrotation Xrotation
							JOINT LeftHand
							{
								OFFSET 3.483560 -0.000000 -0.000000
								CHANNELS 3 Zrotation Yrotation Xrotation
								JOINT LeftFingerBase
								{
									OFFSET 0.000000 0.000000 0.000000
									CHANNELS 3 Zrotation Yrotation Xrotation
									JOINT LeftHandIndex1
									{
										OFFSET 0.715260 -0.000000 -0.000000
										CHANNELS 3 Zrotation Yrotation Xrotation
										End Site
										{
											OFFSET 0.000000 0.000000 0.000000
										}
									}
								}
								JOINT LThumb
								{
									OFFSET 0.000000 0.000000 0.000000
									CHANNELS 3 Zrotation Yrotation Xrotation
									End Site
									{
										OFFSET 0.000000 0.000000 0.000000
									}
								}
							}
						}
					}
				}
				JOINT RightShoulder
				{
					OFFSET 0.000000 0.000000 0.000000
					CHANNELS 3 Zrotation Yrotation Xrotation
					JOINT RightArm
					{
						OFFSET -3.136600 1.374050 -0.404650
						CHANNELS 3 Zrotation Yrotation Xrotation
						JOINT RightForeArm
						{
							OFFSET -5.241900 -0.000000 -0.000000
							CHANNELS 3 Zrotation Yrotation Xrotation
							JOINT RightHand
							{
								OFFSET -3.444170 -0.000000 -0.000000
								CHANNELS 3 Zrotation Yrotation Xrotation
								JOINT RightFingerBase
								{
									OFFSET 0.000000 0.000000 0.000000
									CHANNELS 3 Zrotation Yrotation Xrotation
									JOINT RightHandIndex1
									{
										OFFSET -0.622530 -0.000000 -0.000000
										CHANNELS 3 Zrotation Yrotation Xrotation
										End Site
										{
											OFFSET 0.000000 0.000000 0.000000
										}
									}
								}
								JOINT RThumb
								{
									OFFSET 0.000000 0.000000 0.000000
									CHANNELS 3 Zrotation Yrotation Xrotation
									End Site
									{
										OFFSET 0.000000 0.000000 0.000000
									}
								}
							}
						}
					}
				}
			}
		}
	}
}
MOTION
Frames: 8
Frame Time: 0.008333
-0.803431 18.366818 5.064966 -0.551405 -0.827211 1.973497 -1.111550 3.637530 3.926862 -10.662415 -12.502074 -7.488274 0.783368 7.126939 22.651953 -1.477869 10.882793 -16.588270 8.063700 -16.165900 -52.791700 -6.213266 -4.424817 1.762660 2.892124 1.969245 -1.211150 -0.003974 0.942068 1.484015 0.346957 -0.472419 5.319540 0.000000 0.000000 0.000000 6.064338 3.765563 -1.827676 -29.217221 7.750230 26.546103 5.822895 2.826461 -14.167379 1.738342 0.558304 -24.398650 0.791292 1.265471 39.724318 0.734900 0.659300 14.402100 6.927447 -3.799572 -0.447554 -46.579336 -35.077429 52.559202 79.848513 -57.105505 -47.115939 0.101011 0.875533 -41.913692 -3.847695 -21.912466 1.725900 -7.125000 0.000000 0.000000 -20.662400 8.529100 18.660300 -2.507253 3.849380 0.965696 29.437035 33.028378 60.060695 -136.060085 46.305861 -97.666124 -0.265658 0.394502 -24.000484 -5.572323 -45.758244 3.971300 7.125000 0.000000 0.000000 51.259500 -70.191100 -33.636500 
-0.798340 18.366426 5.067218 -0.554002 -0.820265 1.947452 -1.100365 3.643074 3.938590 -10.696951 -12.488552 -7.468416 0.784907 7.122670 22.655514 -1.469319 10.856394 -16.615559 8.066900 -16.168200 -52.803200 -6.198836 -4.429621 1.780444 2.892159 1.969558 -1.209926 -0.004224 0.942845 1.484127 0.347129 -0.471856 5.320211 0.000000 0.000000 0.000000 6.063261 3.751192 -1.912152 -29.079711 7.743329 26.706386 5.775836 2.811607 -14.135770 1.694819 0.572219 -24.391293 0.729703 1.321317 39.684019 0.723700 0.671400 14.396900 6.901413 -3.798233 -0.449933 -46.519335 -35.102261 52.439656 79.875357 -57.103191 -47.131679 0.101022 0.873991 -41.880221 -3.879828 -21.794839 1.729000 -7.125000 0.000000 0.000000 -20.689100 8.641200 18.638700 -2.492908 3.854421 0.905913 29.310330 33.326149 58.425333 -135.761605 46.438784 -97.413239 -0.234374 0.387161 -23.599087 -6.125542 -45.537107 4.371300 7.125000 0.000000 0.000000 50.203300 -70.240200 -32.881000 
-0.792857 18.366524 5.066435 -0.509707 -0.840970 1.940062 -1.096882 3.647485 3.942172 -10.771253 -12.450607 -7.479851 0.783920 7.121186 22.654991 -1.468520 10.861688 -16.639132 8.079800 -16.177700 -52.849800 -6.193349 -4.427332 1.783070 2.891689 1.970219 -1.208830 -0.004412 0.943779 1.484503 0.347318 -0.470977 5.320688 0.000000 0.000000 0.000000 6.079755 3.723909 -1.899027 -29.051708 7.722034 26.734343 5.734868 2.791836 -14.128831 1.695534 0.594976 -24.302857 0.646642 1.389888 39.611622 0.696100 0.693500 14.360000 6.874390 -3.806590 -0.444027 -46.495869 -35.075915 52.336301 79.898236 -57.103616 -47.148661 0.100895 0.876126 -41.840164 -3.721024 -21.809292 1.669900 -7.125000 0.000000 0.000000 -20.594900 8.620700 18.549800 -2.440628 3.869814 0.861046 29.272378 33.754927 57.110072 -134.784921 46.845838 -96.657589 -0.108160 0.369097 -21.104498 -7.513287 -44.560155 5.345400 7.125000 0.000000 0.000000 46.536800 -70.076900 -29.980600 
-0.787668 18.367601 5.064477 -0.434614 -0.893667 1.962185 -1.103051 3.650248 3.935725 -10.865102 -12.418244 -7.504921 0.780949 7.123179 22.650361 -1.471729 10.879123 -16.643303 8.103300 -16.194700 -52.933800 -6.199751 -4.416863 1.766602 2.891284 1.971456 -1.208484 -0.004666 0.944825 1.485255 0.347467 -0.469786 5.320926 0.000000 0.000000 0.000000 6.189771 3.688721 -1.816826 -29.185932 7.698446 26.616352 5.639419 2.755537 -14.088954 1.725030 0.605400 -24.200461 0.616446 1.418923 39.560528 0.669100 0.714200 14.335400 6.854796 -3.830407 -0.421998 -46.456527 -34.920654 52.234462 80.072238 -57.108053 -47.298997 0.100860 0.879955 -41.676437 -3.481411 -21.866407 1.582700 -7.125000 0.000000 0.000000 -20.449800 8.554800 18.428100 -2.342869 3.895577 0.833097 29.266789 34.344362 56.063291 -132.971483 47.559527 -95.257751 0.127911 0.323011 -16.422661 -9.849671 -42.333634 6.846700 7.125000 0.000000 0.000000 39.318100 -69.269200 -24.145700 
-0.784731 18.368678 5.063106 -0.394589 -0.978062 2.004098 -1.104237 3.651787 3.927568 -10.916082 -12.368322 -7.545166 0.780672 7.127731 22.652577 -1.471752 10.873823 -16.620214 8.089800 -16.184900 -52.885600 -6.202342 -4.406939 1.751216 2.891172 1.971933 -1.208598 -0.004750 0.945047 1.485573 0.347450 -0.469447 5.320868 0.000000 0.000000 0.000000 6.251623 3.685303 -1.745960 -29.218051 7.697793 26.506776 5.576107 2.752878 -14.104058 1.698926 0.583794 -24.146729 0.624458 1.407304 39.638042 0.658000 0.720400 14.350700 6.812310 -3.852531 -0.403691 -46.484601 -34.770286 52.179570 80.294432 -57.115884 -47.489039 0.099728 0.881381 -41.504638 -3.315389 -21.811949 1.515200 -7.125000 0.000000 0.000000 -20.354500 8.596800 18.311200 -2.236219 3.931957 0.812953 29.312747 34.949368 55.368335 -130.447031 48.486067 -93.204053 0.395475 0.273003 -10.376548 -12.055335 -40.442143 8.198700 7.125000 0.000000 0.000000 33.241400 -68.501400 -19.541700 
-0.783067 18.369070 5.061833 -0.426170 -1.081077 2.023927 -1.086013 3.656426 3.929066 -10.902548 -12.237461 -7.612951 0.784612 7.131326 22.665373 -1.471866 10.859570 -16.579352 8.076400 -16.175200 -52.837400 -6.184641 -4.404496 1.757909 2.890899 1.971097 -1.207780 -0.004593 0.944572 1.485111 0.347404 -0.470076 5.320906 0.000000 0.000000 0.000000 6.126792 3.733326 -1.711649 -28.904844 7.739062 26.583098 5.611097 2.821253 -14.269252 1.505933 0.507881 -24.168765 0.636356 1.362672 39.837005 0.673200 0.696200 14.389900 6.719385 -3.856398 -0.423492 -46.623721 -34.971777 52.176413 80.107031 -57.117738 -47.319171 0.100465 0.881541 -41.623147 -3.165917 -21.798391 1.457900 -7.125000 0.000000 0.000000 -20.268400 8.606100 18.218100 -2.154806 3.966738 0.795868 29.384163 35.450721 55.042619 -127.387100 49.505925 -90.605860 0.691863 0.194264 -4.061795 -14.650242 -38.215512 9.640800 7.125000 0.000000 0.000000 26.574700 -67.433500 -14.756900 
-0.779934 18.368874 5.060071 -0.481220 -1.198870 1.999561 -1.061195 3.664828 3.935180 -10.885322 -12.099574 -7.643064 0.788333 7.132819 22.678745 -1.476718 10.869966 -16.558665 8.090200 -16.185200 -52.886800 -6.159646 -4.403687 1.771460 2.891208 1.970399 -1.206977 -0.004623 0.944242 1.484680 0.347392 -0.470642 5.321182 0.000000 0.000000 0.000000 6.009735 3.805303 -1.695793 -28.503284 7.818443 26.762214 5.592079 2.901793 -14.425367 1.318749 0.421937 -24.195512 0.608950 1.310825 39.938221 0.669500 0.663300 14.400200 6.617855 -3.859364 -0.461493 -46.791014 -35.363084 52.163294 79.742522 -57.110450 -46.994541 0.103791 0.883527 -41.874268 -2.946269 -21.909604 1.382700 -7.125000 0.000000 0.000000 -20.135100 8.497400 18.127300 -2.101958 4.003133 0.771479 29.578363 35.888976 55.103094 -124.093524 50.488256 -87.612961 0.893312 0.038437 1.678729 -14.462439 -36.630083 9.281800 7.125000 0.000000 0.000000 24.417200 -65.951900 -12.678000 
-0.776898 18.369167 5.057427 -0.489399 -1.345752 2.002762 -1.051777 3.668269 3.928361 -10.914907 -12.015584 -7.655938 0.786390 7.137499 22.687859 -1.503224 10.982089 -16.578403 8.119100 -16.206200 -52.990700 -6.151817 -4.396986 1.764037 2.892639 1.970232 -1.208226 -0.004806 0.943545 1.484549 0.347168 -0.471327 5.320997 0.000000 0.000000 0.000000 6.002659 3.874995 -1.651103 -28.350187 7.906478 26.791982 5.500497 2.955482 -14.474226 1.258457 0.364841 -24.208063 0.626599 1.247614 39.930012 0.656300 0.645600 14.390000 6.557141 -3.873914 -0.476669 -46.884068 -35.542483 52.114951 79.716003 -57.108652 -46.968990 0.105934 0.887199 -41.942560 -2.701774 -22.055112 1.298700 -7.125000 0.000000 0.000000 -19.983700 8.351100 18.033400 -2.056037 4.045632 0.759826 30.025063 36.280415 55.682424 -120.776570 51.362472 -84.496590 1.075857 -0.044412 6.766277 -16.068530 -36.326777 10.321000 7.125000 0.000000 0.000000 21.990500 -66.161600 -11.466600 
